<svg width="27" height="24" viewBox="0 0 27 24" fill="none" xmlns="http://www.w3.org/2000/svg">
<path d="M-1.52588e-05 10.9364C0.0894662 10.3596 0.137281 9.77258 0.273894 9.20735C1.23838 5.21873 3.62569 2.42724 7.42899 0.843078C7.74457 0.711802 7.96246 0.771658 8.05604 1.0002C8.15099 1.23215 8.03419 1.42124 7.71383 1.55047C5.00343 2.64422 3.0123 4.50317 1.77254 7.14026C-0.972016 12.9769 2.09836 20.0427 8.23706 22.0377C13.7064 23.8157 19.4523 21.2589 21.7774 16.0126C23.7453 11.573 22.3703 6.1431 18.5288 3.1632C16.358 1.47905 13.8983 0.697518 11.1531 0.81383C10.6701 0.834236 10.1899 0.924021 9.70838 0.982517C9.64075 0.990679 9.5745 1.00768 9.50687 1.01381C9.23638 1.03897 9.0663 0.926061 9.03692 0.702279C9.00687 0.476457 9.12982 0.311171 9.39553 0.262198C9.74663 0.19758 10.0998 0.122759 10.455 0.103714C12.3525 0.00168587 14.2576 -0.0901395 16.1449 0.16289C18.7624 0.513187 21.0015 1.67291 22.8478 3.55635C24.6156 5.35884 25.6661 7.52184 26.0582 10.01C26.7795 14.5849 24.4892 19.3796 20.4564 21.7289C18.6149 22.8023 16.6333 23.3634 14.4987 23.3614C13.2296 23.3607 11.9563 23.3954 10.6927 23.3049C8.06424 23.1158 5.77324 22.086 3.82788 20.3209C1.94535 18.6123 0.742476 16.5058 0.234276 14.0163C0.144794 13.5776 0.108592 13.1279 0.04575 12.6831C0.0355041 12.609 0.0156952 12.5362 -1.52588e-05 12.4634C-1.52588e-05 11.9539 -1.52588e-05 11.4452 -1.52588e-05 10.9357V10.9364ZM23.4318 12.3485C24.0514 12.3485 24.6449 12.3525 25.2378 12.3417C25.2939 12.3403 25.3936 12.2417 25.3963 12.1845C25.412 11.8642 25.4107 11.5418 25.3977 11.2214C25.3956 11.1636 25.315 11.0602 25.2693 11.0595C24.6607 11.0486 24.0514 11.052 23.4318 11.052V12.3485ZM23.3601 10.2698H25.3328C25.2529 9.86781 25.1811 9.48759 25.0964 9.11008C25.0869 9.06655 25.0056 9.00873 24.9571 9.00805C24.3553 9.00125 23.7535 9.00329 23.1367 9.00329C23.2139 9.43929 23.287 9.85285 23.3608 10.2698H23.3601ZM23.1422 14.3965C23.7529 14.3965 24.3382 14.3992 24.9236 14.3924C24.9831 14.3917 25.0835 14.3407 25.0937 14.2972C25.1811 13.9149 25.2522 13.5293 25.3342 13.1137C24.6825 13.1137 24.0814 13.1103 23.4803 13.1191C23.4298 13.1198 23.3458 13.1946 23.3362 13.2463C23.2652 13.619 23.2085 13.9945 23.1429 14.3965H23.1422ZM22.9216 8.2238H24.8635C24.6962 7.82249 24.5432 7.44838 24.3806 7.07768C24.3581 7.02667 24.2891 6.96273 24.2406 6.96205C23.649 6.95389 23.0575 6.95661 22.4468 6.95661C22.6135 7.40009 22.7672 7.81092 22.9223 8.2238H22.9216ZM24.8697 15.1604C24.2167 15.1604 23.6299 15.157 23.0425 15.1651C22.9865 15.1658 22.9004 15.2236 22.8806 15.2753C22.733 15.6521 22.5992 16.0337 22.4503 16.4439C23.0165 16.4439 23.5671 16.4439 24.1169 16.4439C24.1593 16.4439 24.2078 16.4547 24.2433 16.4391C24.2918 16.4173 24.3526 16.3847 24.3717 16.3405C24.537 15.9623 24.6934 15.58 24.8697 15.1604ZM23.9188 6.19139C23.759 5.94313 23.6374 5.74247 23.5056 5.5493C23.2096 5.11534 22.7975 4.89881 22.2692 4.89972H21.2706C21.5281 5.32279 21.7583 5.70642 21.9981 6.08393C22.0315 6.1363 22.1142 6.18595 22.1757 6.18731C22.7344 6.19548 23.2932 6.19208 23.9195 6.19208L23.9188 6.19139ZM21.2699 18.5001H22.2153C22.7859 18.5001 23.2308 18.2616 23.55 17.7845C23.6682 17.607 23.7788 17.424 23.9161 17.2084C23.2952 17.2084 22.7412 17.2043 22.188 17.2138C22.1203 17.2152 22.0288 17.2703 21.9912 17.3288C21.7535 17.6995 21.5274 18.0784 21.2699 18.5014V18.5001ZM22.2624 4.13519C22.2781 4.10662 22.2938 4.07737 22.3095 4.0488C21.8416 3.66042 21.3744 3.27203 20.9058 2.88568C20.8813 2.86528 20.8444 2.84895 20.8136 2.84895C20.3505 2.84691 19.8874 2.84759 19.3437 2.84759C19.7925 3.28971 20.1825 3.67742 20.578 4.05969C20.6217 4.10186 20.6961 4.13179 20.7569 4.13247C21.259 4.13791 21.761 4.13587 22.2631 4.13587L22.2624 4.13519ZM22.3048 19.353C22.2918 19.3238 22.2795 19.2952 22.2665 19.266C21.7522 19.266 21.2371 19.2598 20.7228 19.2728C20.6477 19.2748 20.5657 19.3578 20.5028 19.4197C20.1832 19.7346 19.8683 20.0543 19.552 20.3726C19.5035 20.4216 19.4578 20.4726 19.3806 20.5556C19.8669 20.5556 20.2986 20.5583 20.731 20.5529C20.802 20.5522 20.8881 20.5311 20.9414 20.4876C21.399 20.1135 21.8505 19.7326 22.3041 19.3537L22.3048 19.353ZM16.5103 1.02877C16.5349 1.04713 16.5581 1.06754 16.5848 1.0825C17.1401 1.39267 17.6954 1.70216 18.2515 2.01096C18.302 2.03885 18.358 2.07626 18.412 2.07694C18.7808 2.08306 19.1497 2.07966 19.5185 2.07966C18.5786 1.53483 17.58 1.18589 16.5103 1.02877ZM19.5124 21.3188C19.4106 21.3188 19.3082 21.3283 19.2078 21.3174C18.6565 21.2582 18.1715 21.3779 17.7112 21.716C17.3485 21.9826 16.9181 22.1568 16.5172 22.3724C17.5814 22.2146 18.578 21.8643 19.5124 21.3195V21.3188Z" fill="white"/>
<path d="M21.3084 11.4018C21.2695 14.1076 20.4765 16.2305 18.8679 18.0384C18.7729 18.1452 18.5967 18.2445 18.4621 18.2397C18.1397 18.2289 18.0427 17.865 18.2565 17.5834C18.6103 17.1174 18.9976 16.6699 19.2955 16.1692C22.4628 10.8379 19.2511 4.02858 13.111 3.03346C8.15878 2.23084 3.48184 5.77802 2.95724 10.7352C2.45656 15.4673 5.7462 19.7157 10.4669 20.3864C12.7435 20.7102 14.8494 20.2096 16.7517 18.9063C16.8146 18.8628 16.8754 18.8159 16.9403 18.7757C17.1486 18.6472 17.3569 18.6744 17.4847 18.8451C17.6165 19.0206 17.5844 19.2641 17.3726 19.3967C16.8549 19.7212 16.3453 20.0701 15.7954 20.3313C10.2093 22.9861 3.4996 19.6083 2.31311 13.556C1.3377 8.57835 4.42515 3.70277 9.34731 2.44918C14.6267 1.10513 20.0325 4.46934 21.1008 9.77888C21.2272 10.4081 21.2654 11.0549 21.3084 11.4025V11.4018Z" fill="white"/>
<path fill-rule="evenodd" clip-rule="evenodd" d="M12.4721 11.4663L13.6969 8.41101L11.934 8.43061L11.1898 8.4383L9.52032 12.6638L9.15583 13.5502L9.52032 13.4899L11.0247 13.2422L9.06015 18.052H9.07145L14.0621 11.4016L12.4721 11.4663Z" fill="white"/>
<path fill-rule="evenodd" clip-rule="evenodd" d="M12.0916 5.94543L11.3277 7.9547L13.787 7.95726L14.5175 5.97393L12.0916 5.94543Z" fill="white"/>
</svg>
