<svg width="22" height="22" viewBox="0 0 22 22" fill="none" xmlns="http://www.w3.org/2000/svg">
<path d="M22.0002 10.9992C22.0002 17.0736 17.0755 21.9996 11.0011 21.9996C4.92666 21.9996 0.00189209 17.0749 0.00189209 10.9992C0.00189209 4.92349 4.92666 0 11.0011 0C17.0755 0 22.0002 4.92477 22.0002 10.9992Z" fill="#FFCC00"/>
<path d="M19.4152 3.91901C17.3973 1.52342 14.3774 0 10.9992 0C4.92349 0 0 4.92477 0 10.9992C0 12.276 0.21965 13.5001 0.61913 14.6394C6.82198 10.9568 13.0826 7.37303 19.4152 3.91901Z" fill="#FBDB59"/>
<path d="M12.271 21.924C14.7951 21.6337 17.0584 20.4905 18.7655 18.7886C17.0481 19.6145 15.3346 20.4494 13.6198 21.2792C13.1715 21.4963 12.7206 21.7082 12.271 21.924Z" fill="#FBDB59"/>
<path d="M19.1889 10.8268C19.1889 15.4459 15.4458 19.1889 10.8268 19.1889C6.20772 19.1889 2.46469 15.4459 2.46469 10.8268C2.46469 6.20775 6.20772 2.46472 10.8268 2.46472C15.4458 2.46472 19.1889 6.20904 19.1889 10.8268Z" fill="#DA8000"/>
<path d="M19.426 11.1744C19.426 15.7305 15.7331 19.4248 11.1757 19.4248C6.61826 19.4248 2.92532 15.7318 2.92532 11.1744C2.92532 6.61701 6.61826 2.92407 11.1757 2.92407C15.7331 2.92407 19.426 6.61701 19.426 11.1744Z" fill="#EFAA00"/>
<path fill-rule="evenodd" clip-rule="evenodd" d="M11.9492 10.7643L12.8804 7.67126L11.0976 7.69182L10.3448 7.69952L9.08217 11.9756L8.80344 12.8735L9.16567 12.8118L10.6634 12.5614L9.16053 17.4296H9.17209L13.5522 10.6988L11.9492 10.7643Z" fill="#D48D00"/>
<path fill-rule="evenodd" clip-rule="evenodd" d="M11.004 5.17383L10.4337 7.20719L12.923 7.20976L13.4625 5.20209L11.004 5.17383Z" fill="#D48D00"/>
<path fill-rule="evenodd" clip-rule="evenodd" d="M11.5951 10.7166L12.5264 7.62354L10.7448 7.64409L9.99205 7.65179L8.72939 11.9279L8.44937 12.8258L8.81289 12.7641L10.3106 12.5136L8.80775 17.3819H8.81931L13.1982 10.6511L11.5951 10.7166Z" fill="white"/>
<path fill-rule="evenodd" clip-rule="evenodd" d="M10.6508 5.12573L10.0805 7.1591L12.5698 7.16166L13.1093 5.15399L10.6508 5.12573Z" fill="white"/>
</svg>
