<svg width="34" height="34" viewBox="0 0 34 34" fill="none" xmlns="http://www.w3.org/2000/svg">
<path fill-rule="evenodd" clip-rule="evenodd" d="M12.0417 3.54163H21.9584C26.6528 3.54163 30.4584 7.34721 30.4584 12.0416V21.9583C30.4584 26.6527 26.6528 30.4583 21.9584 30.4583H12.0417C7.34727 30.4583 3.54169 26.6527 3.54169 21.9583V12.0416C3.54169 7.34721 7.34727 3.54163 12.0417 3.54163ZM21.9584 28.3333C25.4759 28.3255 28.3256 25.4759 28.3334 21.9583V12.0416C28.3256 8.52404 25.4759 5.67442 21.9584 5.66663H12.0417C8.5241 5.67442 5.67448 8.52404 5.66669 12.0416V21.9583C5.67448 25.4759 8.5241 28.3255 12.0417 28.3333H21.9584Z" fill="#0B0B0B"/>
<path d="M21.505 9.91663C20.9214 9.92426 20.4502 10.3955 20.4425 10.9791C20.4278 11.8734 20.0553 12.7245 19.4084 13.3421C18.7615 13.9598 17.894 14.2924 17 14.2658C15.1586 14.3215 13.6191 12.877 13.5575 11.0358C13.5575 10.449 13.0818 9.97329 12.495 9.97329C11.9082 9.97329 11.4325 10.449 11.4325 11.0358C11.4945 14.0505 13.9852 16.4461 17 16.3908C20.0149 16.4461 22.5055 14.0505 22.5675 11.0358C22.5831 10.7443 22.4781 10.4593 22.2771 10.2476C22.0761 10.0359 21.7969 9.91621 21.505 9.91663Z" fill="#0B0B0B"/>
</svg>
