<svg width="24" height="22" viewBox="0 0 24 22" fill="none" xmlns="http://www.w3.org/2000/svg">
<mask id="mask0_179_135" style="mask-type:luminance" maskUnits="userSpaceOnUse" x="0" y="-1" width="24" height="23">
<path fill-rule="evenodd" clip-rule="evenodd" d="M0.888229 -0.000366211H23.82V21.3029H0.888229V-0.000366211Z" fill="white"/>
</mask>
<g mask="url(#mask0_179_135)">
<path fill-rule="evenodd" clip-rule="evenodd" d="M7.55223 1.6663C4.79667 1.6663 2.55445 3.90852 2.55445 6.66408V14.6385C2.55445 17.3941 4.79667 19.6363 7.55223 19.6363H17.1567C19.9122 19.6363 22.1533 17.3941 22.1533 14.6385V6.66408C22.1533 3.90852 19.9122 1.6663 17.1567 1.6663H7.55223ZM17.1567 21.303H7.55223C3.87779 21.303 0.887787 18.313 0.887787 14.6385V6.66408C0.887787 2.98852 3.87779 -0.000366211 7.55223 -0.000366211H17.1567C20.8311 -0.000366211 23.82 2.98852 23.82 6.66408V14.6385C23.82 18.313 20.8311 21.303 17.1567 21.303Z" fill="white"/>
</g>
</svg>
